# xmcd CD database file
#
# Track frame offsets:
#	150
#	29577
#	76422
#	119810
#	160887
#	184410
#	226537
#	251717
#
# Disc length: 3537 seconds
#
# Revision: 0
# Processed by: cddbd v1.4PL0 Copyright (c) Steve Scherf et al.
# Submitted via: CDex 1.51
#
DISCID=670dcf08
DTITLE=Diversos - Música para bebés
DYEAR=1900
DGENRE=New Age
TTITLE0=Kou - Air Ensemble
TTITLE1=The Tree Souls - Christopher Walcott
TTITLE2=Canon de Pachelbel - Air Ensemble
TTITLE3=The Dream of the Angels - Christopher Walcott
TTITLE4=Ihr Kinderlein - Christopher Walcott
TTITLE5=Wu Wei - Air Ensemble
TTITLE6=Las cuatro estaciones - Air Ensemble
TTITLE7=Sleep baby, sleep - Christopher Walcott
EXTD=
EXTT0=
EXTT1=
EXTT2=
EXTT3=
EXTT4=
EXTT5=
EXTT6=
EXTT7=
PLAYORDER=
